<?xml version="1.0" encoding="UTF-8"?>
<svg id="Layer_1" xmlns="http://www.w3.org/2000/svg" version="1.1" viewBox="0 0 1920 720">
  <!-- Generator: Adobe Illustrator 30.0.0, SVG Export Plug-In . SVG Version: 2.1.1 Build 123)  -->
  <defs>
    <style>
      .st0 {
        fill: #ed3237;
      }

      .st1 {
        font-family: Poppins-Bold, Poppins;
        font-size: 193.15px;
        font-weight: 700;
      }
    </style>
  </defs>
  <text class="st1" transform="translate(492.52 329.96)"><tspan x="0" y="0">TECHNO</tspan><tspan x="0" y="231.78">ENGINEERING</tspan></text>
  <path class="st0" d="M325.83,571.45c40.4,21.64,91.29,25.18,135.46,14.2l8.76,48.07-55.74,6.75c-85.89-2.24-164.49-41.5-214.82-110.94C51.91,325.9,218.02,34.97,470.05,85.28l-8.85,45.77c-36.27-4.69-66.8-5.84-102.59,3.4-93.52,24.15-158.34,111.74-166.08,206.48h214.14v59h-80.85v171.53ZM260.27,524.47v-121.27l-3.28-3.28h-60.09c4.05,40.63,23.55,78.4,48.13,110.29l15.23,14.26Z"/>
</svg>